# xmcd
#
# Track frame offsets:
#	183
#	27755
#	50173
#	73005
#	85993
#	116258
#	134295
#	139563
#	147845
#	172860
#	186690
#	219918
#	233955
#	253880
#	268710
#	290093
#	307435
#	327498
#
# Disc length: 4570 seconds
#
# Revision: 0
# Processed by: cddbd v1.5.2PL0 Copyright (c) Steve Scherf et al.
# Submitted via: EasyCDDAExtractor 16.0.8.2
#
DISCID=2111d812
DTITLE=Συλλογικός δίσκος - The Classic Experience 3.1
DYEAR=1991
DGENRE=Κλασική
TTITLE0=Άνευ ερμηνευτού - Allegro Molto from Symphony No. 9 'New World' [Dvora
TTITLE0=k]
TTITLE1=Άνευ ερμηνευτού - Vltava [Smetana]
TTITLE2=Άνευ ερμηνευτού - Overture from 'The Barber of Seville' [Rossini]
TTITLE3=Renata Scotto-Alfredo Kraus - Brindisi from 'La Traviata' [Verdi]
TTITLE4=Άνευ ερμηνευτού - Overture from 'Die Fledermaus' [Strauss II]
TTITLE5=Άνευ ερμηνευτού - Allegro Vivace from Symphony No. 4 'Italian'[Mendels
TTITLE5=sohn]
TTITLE6=Άνευ ερμηνευτού - Tea (Chinese Dance) from 'The Nutcracker'[Tchaikovsk
TTITLE6=y]
TTITLE7=Άνευ ερμηνευτού - Waltz in D Flat Major ('Minute Waltz')[Chopin]
TTITLE8=Άνευ ερμηνευτού - Molto Allegro from Symphony No. 40 [Mozart]
TTITLE9=Άνευ ερμηνευτού - Chanson de Matin [Elgar]
TTITLE10=Άνευ ερμηνευτού - Adagio from 'Concierto de Aranjuez' [Rodrigo]
TTITLE11=Άνευ ερμηνευτού - Symphony No. 1 [Elgar]
TTITLE12=Άνευ ερμηνευτού - Aria (Cantilena) from 'Bachianas Brasileiras' No. 5
TTITLE12=[Villa-Lobos]
TTITLE13=Ernest Blanc-Nicolai Gedda - In the Depths of the Temple from 'The Pe
TTITLE13=arl Fishers'[Bizet]
TTITLE14=Άνευ ερμηνευτού - Claire de Lune from 'Suite Bergamasque'[Debussy]
TTITLE15=Jose Carreras - Vesti la Guibba from 'Pagliacci' [Leoncavallo]
TTITLE16=Χορωδία - Va, Pensiero (Chorus of the Slaves) from 'Nabucco'[Verdi]
TTITLE17=Άνευ ερμηνευτού - Sheep May Safely Graze [J. S. Bach]
EXTD=CD EMTVD 59 YEAR: 1991\n
EXTT0=
EXTT1=
EXTT2=
EXTT3=
EXTT4=
EXTT5=
EXTT6=
EXTT7=
EXTT8=
EXTT9=
EXTT10=
EXTT11=
EXTT12=
EXTT13=
EXTT14=
EXTT15=
EXTT16=
EXTT17=
PLAYORDER=
